<?xml version="1.0" encoding="iso-8859-1"?>
<!-- Generator: Adobe Illustrator 19.0.0, SVG Export Plug-In . SVG Version: 6.00 Build 0)  -->
<svg xmlns="http://www.w3.org/2000/svg" xmlns:xlink="http://www.w3.org/1999/xlink" version="1.1" id="Layer_1" x="0px" y="0px" viewBox="0 0 511.749 511.749" style="enable-background:new 0 0 511.749 511.749;" xml:space="preserve" width="20" height="20">
<g>
	<g>
		<path d="M460.432,511.749H51.317V0h409.115V511.749z M81.317,481.749h349.115V30H81.317V481.749z"/>
	</g>
	<g>
		<polygon points="149.743,183.944 110.916,127.713 135.603,110.667 149.635,130.99 180.574,85.792 205.33,102.739   "/>
	</g>
	<g>
		<polygon points="149.743,303.952 110.916,247.721 135.603,230.675 149.635,250.998 180.574,205.8 205.33,222.747   "/>
	</g>
	<g>
		<polygon points="149.743,423.959 110.916,367.729 135.603,350.683 149.635,371.005 180.574,325.808 205.33,342.754   "/>
	</g>
	<g>
		<rect x="234.822" y="110.848" width="200" height="20"/>
	</g>
	<g>
		<rect x="234.822" y="230.855" width="200" height="20"/>
	</g>
	<g>
		<rect x="234.822" y="350.863" width="200" height="20"/>
	</g>
</g>















</svg>
